<?xml version="1.0" encoding="UTF-8"?>
<svg xmlns="http://www.w3.org/2000/svg" xmlns:xlink="http://www.w3.org/1999/xlink" width="16pt" height="16pt" viewBox="0 0 16 16" version="1.1">
<g id="surface1">
<path fill="#fff" style=" stroke:none;fill-rule:nonzero;fill:rgb(0%,0%,0%);fill-opacity:1;" d="M 5.761719 14.308594 C 5.414062 14.308594 5.085938 14.171875 4.84375 13.925781 L 0.382812 9.464844 C -0.128906 8.957031 -0.128906 8.132812 0.382812 7.625 L 1.433594 6.574219 C 1.9375 6.066406 2.765625 6.066406 3.273438 6.574219 L 5.761719 9.0625 L 12.714844 2.113281 C 13.21875 1.605469 14.046875 1.605469 14.554688 2.113281 L 15.605469 3.164062 C 15.851562 3.410156 15.984375 3.734375 15.984375 4.082031 C 15.984375 4.429688 15.851562 4.757812 15.605469 5.003906 L 6.683594 13.925781 C 6.4375 14.171875 6.109375 14.308594 5.761719 14.308594 Z M 6.289062 13.53125 L 6.292969 13.53125 Z M 2.351562 7.308594 C 2.304688 7.308594 2.257812 7.324219 2.21875 7.363281 L 1.167969 8.414062 C 1.097656 8.484375 1.097656 8.601562 1.167969 8.675781 L 5.628906 13.136719 C 5.699219 13.207031 5.824219 13.207031 5.894531 13.136719 L 14.816406 4.214844 C 14.886719 4.140625 14.886719 4.023438 14.816406 3.953125 L 13.765625 2.898438 C 13.691406 2.828125 13.574219 2.828125 13.5 2.898438 L 6.15625 10.246094 C 5.9375 10.464844 5.585938 10.464844 5.367188 10.246094 L 2.484375 7.363281 C 2.445312 7.324219 2.398438 7.308594 2.351562 7.308594 Z M 2.351562 7.308594 "/>
</g>
</svg>
